<svg width="18" height="18" viewBox="0 0 18 18" fill="none" xmlns="http://www.w3.org/2000/svg">
<path d="M13.9336 1.2085L16.9336 4.2085L13.9336 7.2085" stroke="#009846" stroke-width="1.5" stroke-linecap="round" stroke-linejoin="round"/>
<path d="M10.9336 4.2085H16.9336" stroke="#009846" stroke-width="1.5" stroke-linecap="round" stroke-linejoin="round"/>
<path d="M16.1837 13.1486V15.3986C16.1845 15.6074 16.1417 15.8142 16.058 16.0056C15.9744 16.197 15.8516 16.3688 15.6977 16.51C15.5438 16.6512 15.3621 16.7587 15.1642 16.8256C14.9664 16.8925 14.7567 16.9174 14.5487 16.8986C12.2408 16.6478 10.0239 15.8592 8.07617 14.5961C6.26404 13.4446 4.72767 11.9082 3.57617 10.0961C2.30865 8.13947 1.51985 5.91181 1.27367 3.59357C1.25492 3.38617 1.27957 3.17714 1.34604 2.97979C1.41251 2.78244 1.51934 2.60109 1.65974 2.44728C1.80014 2.29348 1.97102 2.1706 2.16151 2.08646C2.352 2.00232 2.55792 1.95876 2.76617 1.95857H5.01617C5.38015 1.95499 5.73301 2.08388 6.00899 2.32122C6.28496 2.55856 6.46522 2.88815 6.51617 3.24857C6.61113 3.96862 6.78725 4.67561 7.04117 5.35607C7.14207 5.62451 7.16391 5.91625 7.1041 6.19673C7.04428 6.4772 6.90531 6.73465 6.70367 6.93857L5.75117 7.89107C6.81883 9.76873 8.37351 11.3234 10.2512 12.3911L11.2037 11.4386C11.4076 11.2369 11.665 11.098 11.9455 11.0381C12.226 10.9783 12.5177 11.0002 12.7862 11.1011C13.4666 11.355 14.1736 11.5311 14.8937 11.6261C15.258 11.6775 15.5907 11.861 15.8286 12.1417C16.0664 12.4224 16.1928 12.7807 16.1837 13.1486Z" stroke="#009846" stroke-width="1.5" stroke-linecap="round" stroke-linejoin="round"/>
</svg>
