<svg width="13" height="17" viewBox="0 0 13 17" fill="none" xmlns="http://www.w3.org/2000/svg">
<path d="M6.68343 3.87524C7.23597 3.87524 7.76587 4.09474 8.15657 4.48544C8.54727 4.87614 8.76677 5.40604 8.76677 5.95858C8.76677 6.23216 8.71288 6.50307 8.60818 6.75584C8.50348 7.0086 8.35003 7.23826 8.15657 7.43172C7.96312 7.62517 7.73345 7.77863 7.48069 7.88333C7.22793 7.98802 6.95702 8.04191 6.68343 8.04191C6.1309 8.04191 5.60099 7.82242 5.21029 7.43172C4.81959 7.04102 4.6001 6.51111 4.6001 5.95858C4.6001 5.40604 4.81959 4.87614 5.21029 4.48544C5.60099 4.09474 6.1309 3.87524 6.68343 3.87524ZM6.68343 0.125244C8.23053 0.125244 9.71426 0.739826 10.8082 1.83379C11.9022 2.92775 12.5168 4.41148 12.5168 5.95858C12.5168 10.3336 6.68343 16.7919 6.68343 16.7919C6.68343 16.7919 0.850098 10.3336 0.850098 5.95858C0.850098 4.41148 1.46468 2.92775 2.55864 1.83379C3.6526 0.739826 5.13634 0.125244 6.68343 0.125244ZM6.68343 1.79191C5.57836 1.79191 4.51855 2.2309 3.73715 3.0123C2.95575 3.7937 2.51676 4.85351 2.51676 5.95858C2.51676 6.79191 2.51676 8.45858 6.68343 14.0502C10.8501 8.45858 10.8501 6.79191 10.8501 5.95858C10.8501 4.85351 10.4111 3.7937 9.62971 3.0123C8.84831 2.2309 7.7885 1.79191 6.68343 1.79191Z" fill="#009846"/>
</svg>
