<svg width="29" height="30" viewBox="0 0 29 30" fill="none" xmlns="http://www.w3.org/2000/svg">
<path d="M22.9142 28.8434C20.4338 28.8434 17.7952 28.1404 15.0711 26.7541C12.5599 25.4756 10.0795 23.6454 7.8974 21.4609C5.71532 19.2764 3.88759 16.7936 2.61028 14.2814C1.22652 11.5564 0.523438 8.91817 0.523438 6.4382C0.523438 4.83063 2.02204 3.27768 2.6649 2.68534C3.59067 1.83254 5.04725 0.836914 6.10608 0.836914C6.63269 0.836914 7.24894 1.18139 8.04866 1.92076C8.6439 2.47249 9.31477 3.22026 9.98564 4.08286C10.3904 4.60378 12.4086 7.26299 12.4086 8.53868C12.4086 9.58473 11.8204 9.3526 10.5683 10.1214C10.0837 10.4182 9.64673 10.8282 9.28539 11.1181C8.89883 11.4275 8.83021 11.5914 8.819 11.6278C10.1481 14.941 14.2112 19.0033 17.5235 20.3308C17.5529 20.321 17.7168 20.2566 18.0319 19.8645C18.3218 19.5032 18.6299 19.0019 18.9269 18.5188C19.6972 17.2669 19.7658 16.942 20.812 16.942C22.0879 16.942 24.7476 18.9599 25.2686 19.3646C26.1313 20.0353 26.8792 20.7061 27.431 21.3012C28.1705 22.0994 28.5151 22.7169 28.5151 23.2435C28.5151 24.3021 27.5193 25.7626 26.6677 26.6925C26.0739 27.3394 24.5207 28.8448 22.9128 28.8448L22.9142 28.8434ZM6.09908 2.23724C5.72372 2.24424 4.71392 2.70354 3.61588 3.71458C2.57386 4.6752 1.9254 5.71844 1.9254 6.4382C1.9254 15.861 13.4996 27.443 22.9142 27.443C23.6327 27.443 24.6761 26.7919 25.6369 25.7444C26.6495 24.641 27.1089 23.6272 27.1159 23.2505C27.0711 22.9844 26.3344 21.9496 24.319 20.398C22.5865 19.0649 21.1817 18.3493 20.8204 18.3409C20.3902 18.4604 20.3004 18.9578 20.1201 19.2497C19.3358 20.5254 18.5949 21.7311 17.5179 21.7311C17.3442 21.7311 17.1734 21.6975 17.0095 21.6317C13.333 20.1614 8.98567 15.8148 7.51508 12.1389C7.33861 11.6978 7.3106 11.0061 8.17895 10.2191C8.85022 9.61096 10.1047 9.0175 11.008 8.52748C10.9982 8.1662 10.284 6.76168 8.95062 5.02948C7.3988 3.01441 6.36378 2.27925 6.09767 2.23303L6.09908 2.23724Z" fill="#009846" stroke="#009846" stroke-width="0.5"/>
<path d="M27.998 1.87451L18.0552 11.4992M18.0552 11.4992H24.18M18.0552 11.4992V5.18041" stroke="#009846" stroke-width="2"/>
</svg>
